<?xml version="1.0" encoding="UTF-8" standalone="no"?>
<!-- Generator: Adobe Illustrator 19.0.0, SVG Export Plug-In . SVG Version: 6.00 Build 0)  -->

<svg
   xmlns:dc="http://purl.org/dc/elements/1.1/"
   xmlns:cc="http://creativecommons.org/ns#"
   xmlns:rdf="http://www.w3.org/1999/02/22-rdf-syntax-ns#"
   xmlns:svg="http://www.w3.org/2000/svg"
   xmlns="http://www.w3.org/2000/svg"
   xmlns:sodipodi="http://sodipodi.sourceforge.net/DTD/sodipodi-0.dtd"
   xmlns:inkscape="http://www.inkscape.org/namespaces/inkscape"
   version="1.1"
   id="Layer_1"
   x="0px"
   y="0px"
   viewBox="0 0 295.238 295.238"
   style="enable-background:new 0 0 295.238 295.238;"
   xml:space="preserve"
   inkscape:version="0.91 r13725"
   sodipodi:docname="icon.svg"
   inkscape:export-filename="D:\OpenServer\domains\prezentit\assets\static\img\favicon.png"
   inkscape:export-xdpi="15.366055"
   inkscape:export-ydpi="15.366055"><metadata
     id="metadata51"><rdf:RDF><cc:Work
         rdf:about=""><dc:format>image/svg+xml</dc:format><dc:type
           rdf:resource="http://purl.org/dc/dcmitype/StillImage" /><dc:title></dc:title></cc:Work></rdf:RDF></metadata><defs
     id="defs49"><pattern
       y="0"
       x="0"
       height="6"
       width="6"
       patternUnits="userSpaceOnUse"
       id="EMFhbasepattern" /></defs><sodipodi:namedview
     pagecolor="#ffffff"
     bordercolor="#666666"
     borderopacity="1"
     objecttolerance="10"
     gridtolerance="10"
     guidetolerance="10"
     inkscape:pageopacity="0"
     inkscape:pageshadow="2"
     inkscape:window-width="1366"
     inkscape:window-height="705"
     id="namedview47"
     showgrid="false"
     inkscape:zoom="1.5987102"
     inkscape:cx="23.957068"
     inkscape:cy="136.54336"
     inkscape:window-x="-8"
     inkscape:window-y="-8"
     inkscape:window-maximized="1"
     inkscape:current-layer="g5" /><g
     id="g3"><g
       id="g5"><g
         id="g3383"
         transform="matrix(1.4702859,0,0,1.4702859,-16.280237,-5.7225358)"><path
           style="fill:#008da7;fill-opacity:1;fill-rule:evenodd;stroke:none"
           d="m 72.086769,27.923349 c 0,11.81088 -9.46122,21.37822 -21.16639,21.37822 -11.68391,0 -21.145353,-9.56734 -21.145353,-21.37822 0,-11.78975 9.461443,-21.357 21.145353,-21.357 11.70517,0 21.16639,9.56725 21.16639,21.357 z"
           id="path3363"
           inkscape:connector-curvature="0" /><path
           style="fill:#008da7;fill-opacity:1;fill-rule:evenodd;stroke:none"
           d="m 129.40582,57.027399 c 6.39233,-0.0212 6.56167,11.472051 6.56167,11.472051 -0.27517,6.244167 -1.75684,10.8585 -6.58284,10.964334 l -52.810551,-0.254 0,111.568656 c -0.1905,5.56683 -7.112,10.37167 -11.87422,10.32933 -4.72016,-0.0212 -9.9695,-3.1115 -12.573,-8.53016 -2.30716,5.207 -8.97466,9.18633 -13.63124,9.18633 -4.55081,-0.0212 -10.07528,-4.02167 -11.789752,-11.3665 l -0.02117,-64.19794 -8.953443,-0.0423 c -4.190958,-1.1007 -5.545616,-2.4977 -6.603941,-6.2442 l -0.04233,-51.879216 c 1.269991,-5.651215 5.79961,-10.519555 12.318915,-10.921715 l 11.006584,-0.0847 c 4.2333,5.969 9.44022,10.646548 15.55738,14.181382 6.64634,-3.153834 12.42484,-6.540502 16.42534,-14.223722 z"
           id="path3365"
           inkscape:connector-curvature="0" /><path
           style="fill:#1f6e7d;fill-opacity:1;fill-rule:evenodd;stroke:none"
           d="m 87.834769,19.943569 111.716821,0 c 9.88483,1.67217 11.28183,8.44544 12.27667,14.01225 l 0,114.383731 c 0.14816,6.94267 -2.921,12.7 -12.2555,14.07584 l -111.695661,0 0,-15.15534 97.132991,-0.0212 c 6.96383,-0.0635 11.32417,-4.86834 11.47233,-11.40855 l -0.127,-89.195771 c -0.71966,-4.72017 -3.937,-9.73667 -10.13883,-10.32934 l -98.381821,-0.21162 z"
           id="path3367"
           inkscape:connector-curvature="0" /><path
           style="fill:#1f6e7d;fill-opacity:1;fill-rule:evenodd;stroke:none"
           d="m 118.71665,20.536239 32.55405,0 c -0.0847,-6.09595 -0.508,-12.08607 -15.32438,-12.7634 -11.15483,-0.14817 -18.01283,3.19615 -17.22967,12.7634 z"
           id="path3369"
           inkscape:connector-curvature="0" /><path
           style="fill:#1f6e7d;fill-opacity:1;fill-rule:evenodd;stroke:none"
           d="m 129.36349,167.41072 11.7475,0 31.09355,34.33205 -13.41967,0 -23.32538,-25.20922 -21.61117,24.04506 -13.20772,0 z"
           id="path3371"
           inkscape:connector-curvature="0" /></g></g></g><g
     id="g17" /><g
     id="g19" /><g
     id="g21" /><g
     id="g23" /><g
     id="g25" /><g
     id="g27" /><g
     id="g29" /><g
     id="g31" /><g
     id="g33" /><g
     id="g35" /><g
     id="g37" /><g
     id="g39" /><g
     id="g41" /><g
     id="g43" /><g
     id="g45" /></svg>